<?xml version="1.0" encoding="UTF-8" standalone="no"?>
<!-- Created with Inkpad (http://inkpad.envoza.com/) -->

<svg
   height="487.93796pt"
   viewBox="0 0 491.29315 487.93796"
   width="491.29315pt"
   version="1.1"
   id="svg120"
   sodipodi:docname="knob_shadow.svg"
   inkscape:version="1.2.2 (b0a84865, 2022-12-01)"
   xmlns:inkscape="http://www.inkscape.org/namespaces/inkscape"
   xmlns:sodipodi="http://sodipodi.sourceforge.net/DTD/sodipodi-0.dtd"
   xmlns:xlink="http://www.w3.org/1999/xlink"
   xmlns="http://www.w3.org/2000/svg"
   xmlns:svg="http://www.w3.org/2000/svg">
  <sodipodi:namedview
     id="namedview122"
     pagecolor="#505050"
     bordercolor="#eeeeee"
     borderopacity="1"
     inkscape:showpageshadow="0"
     inkscape:pageopacity="0"
     inkscape:pagecheckerboard="0"
     inkscape:deskcolor="#505050"
     inkscape:document-units="pt"
     showgrid="false"
     inkscape:zoom="0.90966797"
     inkscape:cx="75.851852"
     inkscape:cy="430.92646"
     inkscape:window-width="1309"
     inkscape:window-height="456"
     inkscape:window-x="0"
     inkscape:window-y="37"
     inkscape:window-maximized="0"
     inkscape:current-layer="svg120" />
  <defs
     id="defs109">
    <linearGradient
       inkscape:collect="always"
       id="linearGradient1450">
      <stop
         style="stop-color:#0e0e0e;stop-opacity:0.66666675;"
         offset="0.11486486"
         id="stop1446" />
      <stop
         style="stop-color:#ffffff;stop-opacity:0.125;"
         offset="0.9391892"
         id="stop1448" />
    </linearGradient>
    <linearGradient
       inkscape:collect="always"
       xlink:href="#linearGradient1450"
       id="linearGradient1462"
       x1="61.507084"
       y1="398.97052"
       x2="407.513"
       y2="62.584038"
       gradientUnits="userSpaceOnUse" />
  </defs>
  <path
     stroke="#000000"
     d="m 248.71524,0.51264877 c -41.53,-0.2707 -49.434,3.84010003 -64.663,7.13570023 -50.725,10.9767 -79.979,35.4329 -118.401501,71.8008 -12.9155,12.2253 -25.9369,36.299301 -34.4778,51.275301 -45.283017,79.4 -31.34024778,151.489 -15.5167,193.175 23.4076,61.667 41.5164,79.909 73.6232,108.489 33.770801,30.062 94.521801,56.695 157.755801,54.97 49.203,-1.342 123.26,-31.595 154.335,-56.783 54.231,-43.959 63.607,-65.838 82.427,-133.199 19.145,-68.524 -2.74,-155.088 -45.037,-203.854001 -34.762,-40.0773 -70.879,-67.8543 -119.614,-83.2384 -6.813,-2.1505 -51.693,-9.64920023 -70.431,-9.77140023 z"
     stroke-width="1"
     opacity="1"
     stroke-linejoin="round"
     id="path111-2"
     style="mix-blend-mode:normal;fill:url(#linearGradient1462);fill-opacity:1;stroke-width:1e-08;stroke-dasharray:none"
     sodipodi:nodetypes="ccccccccsccc"
     inkscape:transform-center-x="36.283064"
     inkscape:transform-center-y="34.627948" />
</svg>
