<?xml version="1.0" encoding="UTF-8"?>
<!DOCTYPE svg PUBLIC "-//W3C//DTD SVG 1.1//EN"
  "http://www.w3.org/Graphics/SVG/1.1/DTD/svg11.dtd">
<!-- Created with Inkpad (http://inkpad.envoza.com/) --><svg height="512pt" viewBox="0,0,512,512" xmlns:xlink="http://www.w3.org/1999/xlink" xmlns="http://www.w3.org/2000/svg" width="512pt" xmlns:inkscape="http://www.inkscape.org/namespaces/inkscape" version="1.1" xmlns:inkpad="http://inkpad.envoza.com/svg_extensions">
<defs>
<linearGradient y1="381.227" id="LinearGradient" x1="143.799" y2="137.141" x2="355.918" gradientUnits="userSpaceOnUse" gradientTransform="matrix(1.44753 0.0397667 -0.0397667 1.44753 -104.296 -125.402)">
<stop stop-color="#000000" offset="0.0037594"/>
<stop stop-color="#434343" offset="0.99812"/>
</linearGradient>
<linearGradient y1="351.351" id="LinearGradient_2" x1="167.102" y2="160.444" x2="369.362" gradientUnits="userSpaceOnUse" gradientTransform="matrix(1.44753 0.0397667 -0.0397667 1.44753 -107.815 -120.854)">
<stop stop-color="#282828" offset="0"/>
<stop stop-color="#6a6a6a" offset="1"/>
</linearGradient>
<radialGradient cx="256.458" r="46.7437" id="RadialGradient" gradientUnits="userSpaceOnUse" gradientTransform="matrix(1.44753 0.0397667 -0.0397667 1.44753 -110.386 -121.082)" cy="138.416">
<stop stop-color="#e2e2e2" offset="0.231203"/>
<stop stop-color="#ffffff" offset="1"/>
</radialGradient>
</defs>
<g id="Layer 3" inkscape:label="Layer 3" inkscape:groupmode="layer" inkpad:layerName="Layer 3">
<path stroke="#000000" inkpad:shadowOffset="10" inkpad:shadowColor="#000000" inkpad:shadowOpacity="0.370748" inkpad:shadowAngle="1.5708" d="M257.711+13.9582C216.181+13.6875+208.277+17.7983+193.048+21.0939C142.323+32.0706+113.069+56.5268+74.6465+92.8947C61.731+105.12+48.7096+129.194+40.1687+144.17C-5.11432+223.57+8.82845+295.659+24.652+337.345C48.0596+399.012+66.1684+417.254+98.2752+445.834C132.046+475.896+192.797+502.529+256.031+500.804C305.234+499.462+379.291+469.209+410.366+444.021C464.597+400.062+473.973+378.183+492.793+310.822C511.938+242.298+490.053+155.734+447.756+106.968C412.994+66.8907+376.877+39.1137+328.142+23.7296C321.329+21.5791+276.449+14.0804+257.711+13.9582Z" stroke-width="1" fill="url(#LinearGradient)" opacity="1" inkpad:shadowRadius="10" stroke-linejoin="round"/>
</g>
<g id="Layer 4" inkscape:label="Layer 4" inkscape:groupmode="layer" inkpad:layerName="Layer 4">
<path stroke="#000000" stroke-width="1" inkpad:shadowRadius="10" inkpad:shadowOpacity="0.79932" fill="url(#LinearGradient_2)" inkpad:shadowAngle="2.59907" stroke-linejoin="round" opacity="1" d="M138.261+79.8109C146.345+80.0329+153.138+79.256+159.594+75.2035C168.603+69.5489+173.216+68.9839+178.979+62.7523C184.655+56.6154+188.513+48.9197+194.915+40.8552C199.74+34.7772+203.513+30.7299+207.967+29.2068C222.541+24.2223+286.936+22.9583+300.202+29.7283C318.128+38.8765+308.064+43.319+323.742+55.044C345.37+71.2185+343.64+71.171+357.805+75.4553C374.231+80.4236+387.787+71.0855+397.651+74.386C424.383+83.331+455.881+128.786+464.262+154.551C470.868+174.86+459.873+170.195+458.566+188.585C457.155+208.454+464.219+228.518+470.269+235.215C487.91+254.742+486.909+243.895+490.877+256.987C497.05+277.353+483.046+337.271+473.489+354.32C469.991+360.559+457.297+360.8+443.245+368.204C429.192+375.608+426.876+389.594+417.307+398.652C405.907+409.442+411.996+424.288+407.985+438.645C405.06+449.115+372.801+460.575+365.204+467.765C356.201+476.287+318.263+490.857+306.263+486.487C297.05+483.132+290.293+474.21+282.017+471.106C272.969+467.713+266.639+470.236+253.931+469.469C227.574+467.879+219.486+494.49+196.323+486.929C173.025+479.324+140.762+472.946+117.363+446.675C110.645+439.133+116.707+423.286+109.735+409.245C104.789+399.283+94.9593+394.214+89.583+386.619C80.2927+373.496+73.7649+378.2+60.6152+369.81C48.344+361.982+46.8814+355.917+41.0023+343.304C37.1999+335.147+32.5306+320.532+30.6136+311.858C26.8471+294.815+22.0854+272.931+25.8898+263.256C30.2689+252.119+39.9549+248.526+46.0991+236.545C49.4622+229.988+52.2273+223.701+54.0688+214.259C55.9255+204.739+54.4216+194.901+51.3694+186.487C47.2376+175.095+41.7738+167.916+48.3208+155.675C58.0532+137.477+70.3027+111.701+87.6321+95.2988C93.0019+90.2161+101.72+83.344+108.806+80.7328C109.378+80.522+135.928+79.7468+138.261+79.8109Z" inkpad:shadowOffset="10" stroke-opacity="0.318027" inkpad:shadowColor="#000000"/>
</g>
<g id="Layer 5 l" inkscape:label="Layer 5 l" inkscape:groupmode="layer" inkpad:layerName="Layer 5 l">
<path stroke="#232323" stroke-opacity="0.755102" stroke-width="1.13157" d="M261.958+24.7136C265.047+24.992+266.06+25.3757+266.06+25.3757L264.468+85.8395L243.811+85.272L246.875+24.9617C246.875+24.9617+250.477+24.2158+251.643+24.2479C257.162+24.3995+258.868+24.4352+261.958+24.7136Z" fill="url(#RadialGradient)" stroke-linecap="round" opacity="0.821086" stroke-linejoin="round"/>
</g>
</svg>
