<?xml version='1.0' encoding='us-ascii'?>
<svg xmlns="http://www.w3.org/2000/svg" xmlns:inkpad="http://inkpad.envoza.com/svg_extensions" xmlns:inkscape="http://www.inkscape.org/namespaces/inkscape" xmlns:sodipodi="http://sodipodi.sourceforge.net/DTD/sodipodi-0.dtd" xmlns:xlink="http://www.w3.org/1999/xlink" height="503.9848pt" viewBox="0 0 503.74206 503.9848" width="503.74207pt" version="1.1" id="svg120" sodipodi:docname="knob.svg" inkscape:version="1.2.2 (b0a84865, 2022-12-01)">
  <sodipodi:namedview id="namedview122" pagecolor="#505050" bordercolor="#eeeeee" borderopacity="1" inkscape:showpageshadow="0" inkscape:pageopacity="0" inkscape:pagecheckerboard="0" inkscape:deskcolor="#505050" inkscape:document-units="pt" showgrid="false" inkscape:zoom="1" inkscape:cx="225" inkscape:cy="308.5" inkscape:window-width="1470" inkscape:window-height="841" inkscape:window-x="0" inkscape:window-y="37" inkscape:window-maximized="1" inkscape:current-layer="Layer 4" showguides="false" />
  <defs id="defs109">
    <linearGradient inkscape:collect="always" id="linearGradient2529">
      <stop style="stop-color:#000000;stop-opacity:1;" offset="0" id="stop2525" />
      <stop style="stop-color:#000000;stop-opacity:0.23958331;" offset="1" id="stop2527" />
    </linearGradient>
    <linearGradient inkscape:collect="always" id="linearGradient5190">
      <stop style="stop-color:#000000;stop-opacity:0.44791663;" offset="0" id="stop5186" />
      <stop style="stop-color:#b1b1b1;stop-opacity:0;" offset="1" id="stop5188" />
    </linearGradient>
    <radialGradient cx="256.45801" r="46.743698" id="RadialGradient" gradientUnits="userSpaceOnUse" gradientTransform="matrix(2.2862092,-0.04094313,0.02100335,4.4566525,-331.10182,-369.59238)" cy="138.416">
      <stop stop-color="#e2e2e2" offset="0.231203" id="stop104" style="stop-color:#e2e2e2;stop-opacity:1;" />
      <stop stop-color="#ffffff" offset="1" id="stop106" style="stop-color:#ffffff;stop-opacity:1;" />
    </radialGradient>
    <filter style="color-interpolation-filters:sRGB" inkscape:label="Drop Shadow" id="filter5096" x="-0.020720722" y="-0.020905605" width="1.0415658" height="1.1034222">
      <feFlood flood-opacity="0.529412" flood-color="rgb(0,0,0)" result="flood" id="feFlood5086" />
      <feComposite in="flood" in2="SourceGraphic" operator="in" result="composite1" id="feComposite5088" />
      <feGaussianBlur in="composite1" stdDeviation="3.2" result="blur" id="feGaussianBlur5090" />
      <feOffset dx="0" dy="30" result="offset" id="feOffset5092" />
      <feComposite in="SourceGraphic" in2="offset" operator="over" result="composite2" id="feComposite5094" />
    </filter>
    <linearGradient inkscape:collect="always" xlink:href="#linearGradient5190" id="linearGradient5192" x1="249.36583" y1="486.90222" x2="251.96609" y2="3.8312225" gradientUnits="userSpaceOnUse" />
    <linearGradient inkscape:collect="always" xlink:href="#linearGradient2529" id="linearGradient2801" x1="237.81497" y1="226.71494" x2="248.64732" y2="533.90472" gradientUnits="userSpaceOnUse" gradientTransform="matrix(1.0221135,0,0,1,-4.8296274,0)" />
  </defs>
  <g id="Layer 4" inkscape:label="main" inkscape:groupmode="layer" inkpad:layerName="Layer 4" transform="translate(-4.1533507,-4.0078941)" style="display:inline">
    <path stroke="#000000" d="m 259.15136,6.5728883 c -42.23547,-0.27734 -50.27373,3.9342837 -65.76144,7.3107137 -51.58666,11.245922 -81.33759,36.301947 -120.412761,73.561829 -13.1349,12.525157 -26.3775,37.189589 -35.06348,52.532899 -46.0522396,81.34742 -31.8726296,155.20451 -15.78028,197.91292 23.80522,63.17949 42.22164,81.86891 74.87383,111.14987 34.344461,30.79932 96.127431,58.08555 160.435601,56.31823 50.03881,-1.37492 125.35381,-32.36992 156.95669,-58.17569 55.15222,-45.03717 64.68749,-67.45279 83.82719,-136.46592 C 517.69692,240.51308 495.44016,151.82596 452.42467,101.86389 417.07216,60.80364 380.34164,32.345366 330.77878,16.583947 323.85005,14.380703 278.20766,6.6980863 259.15136,6.5728883 Z" stroke-width="1" opacity="1" stroke-linejoin="round" id="circle-3-2" style="display:inline;fill:#676765;fill-opacity:1;stroke:#595959;stroke-width:0;stroke-dasharray:none;stroke-opacity:0.875537" sodipodi:nodetypes="ccccccccsccc" />
    <path stroke="#000000" d="m 258.98215,17.619345 c -40.36462,-0.265057 -48.04683,3.760039 -62.8485,6.986931 C 146.83205,35.35413 118.39897,59.300454 81.054645,94.910139 68.50157,106.88058 55.845561,130.45264 47.544327,145.11643 3.5319983,222.86107 17.083519,293.44712 32.463043,334.26401 c 22.750759,60.38135 40.351406,78.24304 71.557247,106.22718 32.82315,29.43526 91.86941,55.51301 153.32901,53.82397 47.82231,-1.31403 119.80118,-30.93631 150.00419,-55.59916 52.70923,-43.04252 61.82213,-64.46539 80.11402,-130.42201 18.60776,-67.09538 -2.66312,-151.85466 -43.77322,-199.60396 -33.78654,-39.241748 -68.89006,-66.43964 -116.25751,-81.503004 -6.6218,-2.105665 -50.24245,-9.448028 -68.45463,-9.567681 z" stroke-width="1" opacity="1" stroke-linejoin="round" id="circle-3" style="display:inline;fill:#363636;fill-opacity:1;stroke:#595959;stroke-width:0;stroke-dasharray:none;stroke-opacity:0.875537" sodipodi:nodetypes="ccccccccsccc" />
    <path stroke="#000000" stroke-width="1" inkpad:shadowAngle="2.59907" stroke-linejoin="round" opacity="1" d="m 137.84949,85.753252 c 7.94892,0.2137 14.6284,-0.534157 20.97651,-4.435153 8.85846,-5.443203 13.39438,-5.987082 19.06107,-11.985713 5.58115,-5.907472 9.37468,-13.315469 15.6697,-21.078476 4.74437,-5.850775 8.45432,-9.746767 12.8339,-11.212926 14.33046,-4.798154 77.64938,-6.014899 90.69369,0.502003 17.62647,8.806196 7.73063,13.082614 23.14665,24.369274 21.26659,15.569817 19.56549,15.524092 33.49379,19.648223 16.15152,4.782561 29.48099,-4.206433 39.18015,-1.029323 26.28529,8.610592 57.25695,52.366239 65.49789,77.168029 6.49563,19.54974 -4.31563,15.05914 -5.6008,32.76163 -1.38743,19.12622 5.55852,38.44011 11.50743,44.88675 17.34621,18.79698 16.36193,8.35549 20.26363,20.95806 6.06985,19.60461 -7.70014,77.28257 -17.09745,93.6942 -3.43953,6.00575 -15.92141,6.23773 -29.7386,13.36495 -13.81816,7.12719 -16.09546,20.59033 -25.50455,29.3097 -11.20951,10.38662 -5.22227,24.67759 -9.16624,38.49787 -2.87612,10.07857 -28.92115,20.31649 -42.06611,28.03134 -10.45422,6.13673 -46.15658,16.67313 -57.95606,12.46651 -9.05905,-3.22959 -15.70313,-6.26246 -23.84084,-9.25042 -8.89679,-3.26615 -15.12102,-0.83748 -27.61666,-1.5758 -25.91656,-1.53055 -33.86941,24.08559 -56.64535,16.80727 -22.90867,-7.32069 -54.63253,-13.46025 -77.64053,-38.7491 -6.60574,-7.26005 -0.64503,-22.51462 -7.50053,-36.0307 C 104.93684,393.2819 95.271402,388.4024 89.984943,381.09133 80.849889,368.45893 74.431172,372.98709 61.501212,364.91072 49.435067,357.37538 47.99691,351.53714 42.216051,339.39566 38.477191,331.54362 33.885919,317.475 32.000952,309.12527 c -3.70356,-16.40585 -8.385689,-37.47171 -4.644863,-46.78502 4.305924,-10.72064 13.830065,-14.17931 19.871592,-25.71241 3.306901,-6.31186 6.025796,-12.36382 7.836522,-21.45283 1.825674,-9.16409 0.346906,-18.63431 -2.654291,-26.73375 -4.062755,-10.96612 -9.435253,-17.87671 -2.997658,-29.66009 9.569769,-17.51767 21.614572,-42.33004 38.654389,-58.11903 5.280068,-4.892688 13.852477,-11.507874 20.820057,-14.021454 0.56245,-0.202919 26.66878,-0.949139 28.96279,-0.887434 z" stroke-opacity="0.318027" inkpad:shadowColor="#000000" id="path2916" style="display:inline;fill:#dadada;fill-opacity:0.756863;stroke:#989898;stroke-width:0;stroke-linecap:butt;stroke-linejoin:miter;stroke-dasharray:none;stroke-opacity:0.755365" sodipodi:nodetypes="cccsccccccccccccscsccsccccccccscccsc" />
    <path stroke="#000000" stroke-width="1" inkpad:shadowAngle="2.59907" stroke-linejoin="round" opacity="1" d="m 151.49213,105.79949 c 7.03128,0.18854 12.93964,-0.47126 18.5549,-3.91293 7.8358,-4.802267 11.84806,-5.282107 16.86055,-10.57441 4.93686,-5.211879 8.29245,-11.747602 13.86073,-18.596528 4.19667,-5.161859 7.47832,-8.599108 11.35231,-9.892628 12.67608,-4.233181 68.68517,-5.306658 80.22358,0.442892 15.59159,7.769285 6.83817,11.542164 20.47451,21.499842 18.81148,13.736503 17.30674,13.696164 29.62712,17.334682 14.28691,4.21942 26.07755,-3.711131 34.65701,-0.90812 23.25079,7.5967 50.64693,46.20026 57.9365,68.08166 5.74576,17.2478 -3.81741,13.28595 -4.95423,28.904 -1.22725,16.87417 4.91685,33.91389 10.17896,39.60144 15.3437,16.58367 14.47306,7.37165 17.92431,18.49029 5.36914,17.29622 -6.81117,68.18272 -15.12364,82.66191 -3.04245,5.29857 -14.08337,5.50325 -26.30543,11.79126 -12.22293,6.28799 -14.23732,18.16585 -22.56019,25.85854 -9.91545,9.16362 -4.61938,21.77187 -8.10804,33.9648 -2.54409,8.89185 -25.58238,17.92428 -37.20981,24.73073 -9.24734,5.41414 -40.82805,14.70991 -51.26536,10.99859 -8.01321,-2.8493 -13.89028,-5.52504 -21.08853,-8.1612 -7.86972,-2.88156 -13.37539,-0.73885 -24.42847,-1.39023 -22.92463,-1.35033 -29.95937,21.24958 -50.10595,14.82823 -20.26398,-6.45869 -48.32551,-11.87533 -68.67736,-34.18648 -5.84314,-6.40518 -0.57056,-19.86354 -6.63463,-31.78814 -4.3019,-8.46039 -12.8515,-12.76537 -17.52767,-19.21557 -8.08047,-11.14495 -13.758178,-7.14998 -25.195442,-14.27536 -10.673174,-6.64807 -11.945306,-11.79888 -17.058796,-22.51074 -3.307227,-6.92745 -7.368461,-19.33951 -9.03582,-26.70609 -3.276005,-14.4741 -7.417607,-33.05953 -4.108639,-41.27619 3.808828,-9.45832 12.233461,-12.50973 17.577525,-22.68484 2.925137,-5.56862 5.33015,-10.90799 6.931837,-18.92679 1.614911,-8.08503 0.306859,-16.44016 -2.347866,-23.5859 -3.593734,-9.67488 -8.346003,-15.77177 -2.651595,-26.16769 8.46499,-15.45499 19.119287,-37.34577 34.191946,-51.27564 4.67052,-4.31659 12.25329,-10.15285 18.41649,-12.37044 0.49752,-0.17904 23.59003,-0.83738 25.61919,-0.78295 z" stroke-opacity="0.318027" inkpad:shadowColor="#000000" id="interior" style="fill:#565656;fill-opacity:1;stroke:#989898;stroke-width:0;stroke-linecap:butt;stroke-linejoin:miter;stroke-dasharray:none;stroke-opacity:0.755365" sodipodi:nodetypes="cccsccccccccccccscsccsccccccccscccsc" />
    <path stroke="#232323" stroke-opacity="0.755102" stroke-width="2.49442" d="M 272.31272,59.486234 V 224.55974 H 239.68728 V 59.486234 c 2.77697,-0.44422 14.88048,-0.347991 16.71616,-0.432753 1.93037,8.07e-4 11.04965,0.05248 15.90928,0.432753 z" fill="url(#RadialGradient)" stroke-linecap="round" opacity="0.821086" stroke-linejoin="round" id="marker" style="opacity:1;fill:#ffffff;fill-opacity:1;stroke:#fefefe;stroke-width:0;stroke-dasharray:none;stroke-opacity:0.755102" sodipodi:nodetypes="cccccc" />
    <rect style="fill:none;fill-opacity:1;stroke:#595959;stroke-width:0;stroke-dasharray:none;stroke-opacity:0" id="rect2750" width="495.11765" height="492.70834" x="7.1654177" y="8.8265734" />
  </g>
  </svg>